<svg xmlns="http://www.w3.org/2000/svg" viewBox="0 0 64 64" fill="none" role="img" aria-label="Storia">
  <defs>
    <linearGradient id="tile" x1="0" y1="0" x2="64" y2="64" gradientUnits="userSpaceOnUse">
      <stop offset="0" stop-color="#211A11"/>
      <stop offset="1" stop-color="#14100A"/>
    </linearGradient>
    <linearGradient id="sc" x1="16" y1="12" x2="50" y2="54" gradientUnits="userSpaceOnUse">
      <stop offset="0" stop-color="#EBD49A"/>
      <stop offset=".5" stop-color="#CBA968"/>
      <stop offset="1" stop-color="#9C7B3B"/>
    </linearGradient>
  </defs>
  <rect width="64" height="64" rx="16" fill="url(#tile)"/>
  <rect x="1.5" y="1.5" width="61" height="61" rx="14.5" fill="none" stroke="#3A2F1B" stroke-width="1"/>
  <path d="M43.6 21.6 C43.6 16.4 38.6 13.5 32.6 13.5 C24.7 13.5 20.2 18 20.2 23.2 C20.2 28.8 26 31 33.3 32.7 C40.6 34.4 46.3 36.6 46.3 42.3 C46.3 47.9 40.6 50.8 33.3 50.8 C26.5 50.8 21.4 47.9 20.8 42.6"
        stroke="url(#sc)" stroke-width="5" stroke-linecap="round" stroke-linejoin="round"/>
  <path d="M48.5 15 C48.7 17.2 49.1 17.6 51.3 17.8 C49.1 18 48.7 18.4 48.5 20.6 C48.3 18.4 47.9 18 45.7 17.8 C47.9 17.6 48.3 17.2 48.5 15 Z"
        fill="#E7CE92"/>
</svg>
